HIERARCHY
ROOT Pelvis
{
	OFFSET 0.000000 0.000000 0.000000
	CHANNELS 6 Xposition Yposition Zposition Xrotation Yrotation Zrotation
	JOINT LeftUpLeg_virtual
	{
		OFFSET 0.000000 0.000000 0.000000
		CHANNELS 3 Xrotation Yrotation Zrotation
		JOINT LeftUpLeg
		{
			OFFSET 18.735201 -5.666702 -4.541200
			CHANNELS 3 Xrotation Yrotation Zrotation
			JOINT LeftLeg
			{
				OFFSET -0.021200 -31.938179 0.493100
				CHANNELS 3 Xrotation Yrotation Zrotation
				JOINT LeftFoot
				{
					OFFSET 0.021200 -31.938179 -4.336299
					CHANNELS 3 Xrotation Yrotation Zrotation
					JOINT LeftToeBase
					{
						OFFSET 0.943001 -26.722000 15.023500
						CHANNELS 3 Xrotation Yrotation Zrotation
						End Site
						{
							OFFSET 0 0 0
						}
					}
				}
			}
		}
	}
	JOINT RightUpLeg_virtual
	{
		OFFSET 0.000000 0.000000 0.000000
		CHANNELS 3 Xrotation Yrotation Zrotation
		JOINT RightUpLeg
		{
			OFFSET -18.735201 -5.666702 -4.541200
			CHANNELS 3 Xrotation Yrotation Zrotation
			JOINT RightLeg
			{
				OFFSET 0.018946 -31.938133 0.493100
				CHANNELS 3 Xrotation Yrotation Zrotation
				JOINT RightFoot
				{
					OFFSET -0.018946 -31.938126 -4.336299
					CHANNELS 3 Xrotation Yrotation Zrotation
					JOINT RightToeBase
					{
						OFFSET -0.943001 -26.722004 15.023500
						CHANNELS 3 Xrotation Yrotation Zrotation
						End Site
						{
							OFFSET 0 0 0
						}
					}
				}
			}
		}
	}
	JOINT Hips_virtual
	{
		OFFSET 0.000000 0.000000 0.000000
		CHANNELS 3 Xrotation Yrotation Zrotation
		JOINT Hips
		{
			OFFSET -0.000000 -0.000000 -0.000000
			CHANNELS 3 Xrotation Yrotation Zrotation
			JOINT Spine
			{
				OFFSET 0.000000 10.199997 -0.299500
				CHANNELS 3 Xrotation Yrotation Zrotation
				JOINT Spine1
				{
					OFFSET 0.000000 11.900002 -1.516600
					CHANNELS 3 Xrotation Yrotation Zrotation
					JOINT Spine2
					{
						OFFSET 0.000000 13.600006 -2.842500
						CHANNELS 3 Xrotation Yrotation Zrotation
						JOINT Neck_virtual
						{
							OFFSET 0.000000 0.000000 0.000000
							CHANNELS 3 Xrotation Yrotation Zrotation
							JOINT Neck
							{
								OFFSET 0.000000 9.624100 -2.890100
								CHANNELS 3 Xrotation Yrotation Zrotation
								JOINT Head
								{
									OFFSET 0.000000 14.068802 -1.351900
									CHANNELS 3 Xrotation Yrotation Zrotation
									End Site
									{
										OFFSET 0 0 0
									}
								}
							}
						}
						JOINT LeftShoulder_virtual
						{
							OFFSET 0.000000 0.000000 0.000000
							CHANNELS 3 Xrotation Yrotation Zrotation
							JOINT LeftShoulder
							{
								OFFSET 15.263000 10.923401 -0.547700
								CHANNELS 3 Xrotation Yrotation Zrotation
								JOINT LeftArm
								{
									OFFSET 25.438599 -2.830597 -13.032500
									CHANNELS 3 Xrotation Yrotation Zrotation
									JOINT LeftForeArm
									{
										OFFSET 29.960503 0.000000 0.000000
										CHANNELS 3 Xrotation Yrotation Zrotation
										JOINT LeftHand
										{
											OFFSET 27.849251 0.000000 0.000000
											CHANNELS 3 Xrotation Yrotation Zrotation
											End Site
											{
												OFFSET 0 0 0
											}
										}
									}
								}
							}
						}
						JOINT RightShoulder_virtual
						{
							OFFSET 0.000000 0.000000 0.000000
							CHANNELS 3 Xrotation Yrotation Zrotation
							JOINT RightShoulder
							{
								OFFSET -15.263000 10.923401 -0.547700
								CHANNELS 3 Xrotation Yrotation Zrotation
								JOINT RightArm
								{
									OFFSET -25.438599 -2.830597 -13.032500
									CHANNELS 3 Xrotation Yrotation Zrotation
									JOINT RightForeArm
									{
										OFFSET -29.960503 0.000000 0.000000
										CHANNELS 3 Xrotation Yrotation Zrotation
										JOINT RightHand
										{
											OFFSET -27.849251 0.000000 0.000000
											CHANNELS 3 Xrotation Yrotation Zrotation
											End Site
											{
												OFFSET 0 0 0
											}
										}
									}
								}
							}
						}
					}
				}
			}
		}
	}
}
MOTION
Frames: 9
Frame Time: 0.03333333
-0.396068 134.129761 0.447908 0.000000 0.000000 0.000000 0.749916 -12.219469 -2.155151 -41.022253 7.403345 14.757746 68.446050 2.518936 -0.754958 13.828210 1.933268 -4.496553 0.000000 0.000000 0.000000 2.613263 0.392195 2.066660 -26.991859 -4.689901 -12.669145 66.968707 -4.318837 3.542832 9.358272 -7.732865 13.287389 0.000000 0.000000 0.000000 0.321990 -4.162996 -0.112471 -0.081474 3.273798 -1.517757 -3.777028 0.351688 0.061915 -2.058282 0.865680 -0.339444 0.000000 0.000000 0.000000 -7.090884 0.684240 -1.958078 -4.856098 0.608999 -0.203398 0.000000 0.000000 0.000000 3.974172 3.028212 2.877403 3.743654 0.803836 21.290902 -75.809581 -25.755412 -4.505865 -21.448302 -51.761482 6.712816 0.000000 0.000000 0.000000 -0.889637 -0.724185 -4.578066 2.093284 4.191232 -20.688158 -64.558019 18.975398 -4.082644 -26.401534 55.687065 1.025191 0.000000 0.000000 0.000000 
-0.289744 134.244720 0.085361 0.000000 0.000000 0.000000 0.427169 -12.679449 -2.351010 -41.367597 7.298155 14.552813 68.584013 2.178857 -0.840549 13.945217 1.600005 -4.937572 0.000000 0.000000 0.000000 2.845049 0.291098 2.061889 -26.632096 -4.755876 -12.653564 66.729302 -3.804648 3.666250 9.195602 -7.279342 13.949131 0.000000 0.000000 0.000000 0.461029 -4.219153 -0.130240 0.264057 2.630289 -1.592013 -3.902304 0.590418 0.127948 -2.105545 0.998906 -0.267802 0.000000 0.000000 0.000000 -7.115052 0.786135 -1.914307 -4.842978 0.640088 -0.191895 0.000000 0.000000 0.000000 4.036677 3.195202 2.882462 3.826626 1.068831 21.596713 -76.589944 -26.394079 -3.942707 -21.766495 -51.925796 6.807395 0.000000 0.000000 0.000000 -0.945738 -0.633903 -4.508946 2.203710 4.395100 -20.596575 -64.726848 19.530139 -4.162998 -26.565532 55.626628 1.124230 0.000000 0.000000 0.000000 
-0.096638 134.470917 -0.629217 0.000000 0.000000 0.000000 -0.174678 -13.539983 -2.720741 -42.009492 7.104198 14.174313 68.784513 1.546225 -1.000525 14.106089 0.981697 -5.760889 0.000000 0.000000 0.000000 3.284103 0.039776 2.052530 -25.957582 -4.896803 -12.632858 66.259153 -2.869991 3.886933 8.855099 -6.457951 15.138845 0.000000 0.000000 0.000000 0.724882 -4.351258 -0.161513 0.924006 1.395433 -1.726120 -4.156637 1.062092 0.263672 -2.199598 1.258132 -0.133733 0.000000 0.000000 0.000000 -7.160651 0.992420 -1.825727 -4.812130 0.700735 -0.166367 0.000000 0.000000 0.000000 4.169676 3.524446 2.889914 3.994599 1.580559 22.169659 -78.001935 -27.615379 -2.887543 -22.343046 -52.288903 7.021738 0.000000 0.000000 0.000000 -1.049637 -0.446984 -4.376963 2.417317 4.825048 -20.395864 -65.082332 20.558767 -4.305599 -26.826884 55.424820 1.250497 0.000000 0.000000 0.000000 
0.150230 134.801437 -1.671923 0.000000 0.000000 0.000000 -0.976550 -14.712757 -3.226524 -42.857767 6.846780 13.671613 68.922319 0.708428 -1.216740 14.191970 0.169844 -6.860274 0.000000 0.000000 0.000000 3.885984 -0.442283 2.041886 -25.048853 -5.127525 -12.622340 65.580690 -1.684254 4.155449 8.326083 -5.422293 16.614632 0.000000 0.000000 0.000000 1.090022 -4.590140 -0.199289 1.836007 -0.348256 -1.900501 -4.535932 1.755047 0.473305 -2.336643 1.631099 0.046865 0.000000 0.000000 0.000000 -7.217901 1.306073 -1.691770 -4.756104 0.788576 -0.123500 0.000000 0.000000 0.000000 4.385801 4.007178 2.895545 4.247952 2.313082 22.940821 -79.806990 -29.310606 -1.465585 -23.086161 -52.905860 7.385402 0.000000 0.000000 0.000000 -1.184125 -0.154210 -4.193839 2.720405 5.512351 -20.060325 -65.648602 21.915967 -4.474702 -27.081874 54.955794 1.291746 0.000000 0.000000 0.000000 
0.414412 135.226471 -3.002444 0.000000 0.000000 0.000000 -1.878414 -16.120281 -3.824854 -43.794862 6.550329 13.093304 68.861680 -0.219858 -1.469327 14.081054 -0.711645 -8.099126 0.000000 0.000000 0.000000 4.594590 -1.239845 2.038761 -24.005873 -5.463446 -12.635379 64.736287 -0.459765 4.404460 7.626482 -4.359705 18.071854 0.000000 0.000000 0.000000 1.531136 -4.963847 -0.236038 2.908899 -2.519987 -2.100698 -5.013376 2.651995 0.756620 -2.505759 2.103837 0.255225 0.000000 0.000000 0.000000 -7.266023 1.727739 -1.514288 -4.667541 0.901354 -0.061363 0.000000 0.000000 0.000000 4.697015 4.631702 2.895169 4.579548 3.247407 23.824998 -81.756586 -31.327325 0.172484 -23.908223 -53.825350 7.906943 0.000000 0.000000 0.000000 -1.323525 0.251497 -3.975576 3.094309 6.478389 -19.570143 -66.438493 23.421477 -4.620337 -27.236737 54.103984 1.146708 0.000000 0.000000 0.000000 
0.666004 135.732117 -4.564150 0.000000 0.000000 0.000000 -2.777195 -17.720292 -4.476624 -44.695242 6.231951 12.473211 68.493178 -1.110721 -1.739342 13.688817 -1.523355 -9.327391 0.000000 0.000000 0.000000 5.351896 -2.416510 2.056408 -22.930668 -5.914773 -12.679773 63.792027 0.589606 4.556878 6.813727 -3.447736 19.199339 0.000000 0.000000 0.000000 2.027550 -5.484063 -0.265650 4.031282 -5.067232 -2.319785 -5.532636 3.731173 1.104060 -2.686916 2.663509 0.473076 0.000000 0.000000 0.000000 -7.274783 2.253586 -1.298634 -4.542273 1.037457 0.019528 0.000000 0.000000 0.000000 5.109504 5.384366 2.885584 4.969904 4.380412 24.735580 -83.650877 -33.485101 1.882211 -24.747780 -55.056120 8.562265 0.000000 0.000000 0.000000 -1.436766 0.771072 -3.741278 3.517848 7.719481 -18.923348 -67.437094 24.896717 -4.686475 -27.247558 52.815326 0.771709 0.000000 0.000000 0.000000 
0.887097 136.297531 -6.289581 0.000000 0.000000 0.000000 -3.583988 -19.504759 -5.152362 -45.446306 5.899929 11.827204 67.757239 -1.836898 -2.007723 12.991104 -2.131331 -10.395725 0.000000 0.000000 0.000000 6.106847 -3.999541 2.108023 -21.913118 -6.482489 -12.758799 62.835015 1.290003 4.537827 5.974362 -2.815292 19.736313 0.000000 0.000000 0.000000 2.565482 -6.139600 -0.284482 5.087362 -7.974179 -2.551651 -6.015640 4.968423 1.494308 -2.852939 3.299515 0.684329 0.000000 0.000000 0.000000 -7.212145 2.874604 -1.053313 -4.381401 1.195706 0.116797 0.000000 0.000000 0.000000 5.621138 6.250010 2.864191 5.387350 5.721637 25.596385 -85.358486 -35.598072 3.551820 -25.569880 -56.542796 9.302819 0.000000 0.000000 0.000000 -1.492593 1.397907 -3.512067 3.970649 9.202142 -18.140851 -68.592967 26.200531 -4.622887 -27.127845 51.125762 0.195336 0.000000 0.000000 0.000000 
1.070425 136.891251 -8.110419 0.000000 0.000000 0.000000 -4.236708 -21.481662 -5.831025 -45.965985 5.555150 11.159580 66.652387 -2.286202 -2.252415 12.024852 -2.428378 -11.168796 0.000000 0.000000 0.000000 6.820994 -5.977011 2.201853 -21.022796 -7.157281 -12.874562 61.964241 1.539766 4.289770 5.200049 -2.521005 19.519209 0.000000 0.000000 0.000000 3.135853 -6.900306 -0.291388 5.975964 -11.250933 -2.781051 -6.382528 6.339216 1.895796 -2.975395 4.002504 0.875058 0.000000 0.000000 0.000000 -7.053669 3.577071 -0.788580 -4.191580 1.374479 0.227780 0.000000 0.000000 0.000000 6.222655 7.211578 2.827296 5.795003 7.278681 26.348146 -86.807558 -37.500901 5.115694 -26.352330 -58.166758 10.076304 0.000000 0.000000 0.000000 -1.464899 2.118838 -3.309785 4.436499 10.868768 -17.263286 -69.820666 27.254842 -4.396810 -26.923124 49.159023 -0.504091 0.000000 0.000000 0.000000 
1.212750 137.469315 -9.967968 0.000000 0.000000 0.000000 -4.705680 -23.654943 -6.494471 -46.212770 5.192703 10.473481 65.230861 -2.377483 -2.446716 10.870173 -2.351662 -11.540348 0.000000 0.000000 0.000000 7.469618 -8.303449 2.339380 -20.307104 -7.921053 -13.029607 61.276141 1.324324 3.787010 4.563898 -2.552220 18.508727 0.000000 0.000000 0.000000 3.729888 -7.729530 -0.286999 6.624703 -14.912511 -2.978808 -6.574171 7.819032 2.272363 -3.032271 4.762026 1.032817 0.000000 0.000000 0.000000 -6.788056 4.343492 -0.514942 -3.983427 1.570745 0.350780 0.000000 0.000000 0.000000 6.901758 8.248908 2.768238 6.162072 9.039362 26.950144 -87.968158 -39.072586 6.551517 -27.071859 -59.778130 10.846578 0.000000 0.000000 0.000000 -1.336112 2.916138 -3.155063 4.904758 12.648799 -16.341825 -71.015287 28.052357 -4.000769 -26.677614 47.096460 -1.237221 0.000000 0.000000 0.000000 
